<?xml version="1.0" encoding="UTF-8" standalone="no"?>
<svg
  xmlns:svg="http://www.w3.org/2000/svg"
  xmlns="http://www.w3.org/2000/svg"
  version="1.0"
  width="672"
  height="504"
  viewBox="0 0 672 504"
>
  <rect
    x="0"
    y="0"
    width="672"
    height="504"
    fill="#131313"
  />
  <rect
    x="0"
    y="0"
    width="96"
    height="336"
    fill="#C0C0C0"
  />
  <rect
    x="96"
    y="0"
    width="96"
    height="336"
    fill="#C0C000"
  />
  <rect
    x="192"
    y="0"
    width="96"
    height="336"
    fill="#00C0C0"
  />
  <rect
    x="288"
    y="0"
    width="96"
    height="336"
    fill="#00C000"
  />
  <rect
    x="384"
    y="0"
    width="96"
    height="336"
    fill="#C000C0"
  />
  <rect
    x="480"
    y="0"
    width="96"
    height="336"
    fill="#C00000"
  />
  <rect
    x="576"
    y="0"
    width="96"
    height="336"
    fill="#0000C0"
  />
  <rect
    x="0"
    y="336"
    width="96"
    height="42"
    fill="#0000C0"
  />
  <rect
    x="192"
    y="336"
    width="96"
    height="42"
    fill="#C000C0"
  />
  <rect
    x="384"
    y="336"
    width="96"
    height="42"
    fill="#00C0C0"
  />
  <rect
    x="576"
    y="336"
    width="96"
    height="42"
    fill="#C0C0C0"
  />
  <rect
    x="0"
    y="378"
    width="120"
    height="126"
    fill="#00214C"
  />
  <rect
    x="120"
    y="378"
    width="120"
    height="126"
    fill="#FFFFFF"
  />
  <rect
    x="240"
    y="378"
    width="120"
    height="126"
    fill="#32006A"
  />
  <rect
    x="480"
    y="378"
    width="32"
    height="126"
    fill="#090909"
  />
  <rect
    x="544"
    y="378"
    width="32"
    height="126"
    fill="#1D1D1D"
  />
</svg>
