<svg version="1.1" baseProfile="full" viewBox="0 0 40 30" width="400" height="300" xmlns="http://www.w3.org/2000/svg" xmlns:xlink="http://www.w3.org/1999/xlink"><defs><rect id="screen--rect-outer" x="0" y="0" rx="1" width="40" height="30"></rect><clipPath id="screen--clip-outer"><use xlink:href="#screen--rect-outer"></use></clipPath><clipPath id="screen--clip-middle"><rect x="1.2" y="1.2" rx="1" width="37.6" height="27.6"></rect></clipPath><mask id="screen--mask-inner"><use xlink:href="#screen--rect-outer" fill="#FFFFFF"></use><path d="M 3 2.5 Q 20 1.5, 37 2.5 Q 38 15, 37 27.5 Q 20 28.5, 3 27.5 Q 2 15, 3 2.5 Z" fill="#000000"></path></mask><filter id="screen--filter-texture"><feTurbulence type="fractalNoise" baseFrequency="30, 30" result="00noise"></feTurbulence><feBlend in="SourceGraphic" in2="00noise" mode="multiply"></feBlend></filter><filter id="screen--filter-blur"><feGaussianBlur stdDeviation=".18"></feGaussianBlur></filter><filter id="screen--filter-blur-corner"><feGaussianBlur stdDeviation=".3"></feGaussianBlur></filter><linearGradient id="screen--grad-outer-horiz" x1="0%" y1="0%" x2="100%" y2="0%" gradientUnits="objectBoundingBox"><stop offset="0%" stop-color="#000000" stop-opacity=".9"></stop><stop offset="5%" stop-color="#000000" stop-opacity="0"></stop><stop offset="95%" stop-color="#000000" stop-opacity="0"></stop><stop offset="100%" stop-color="#000000" stop-opacity=".9"></stop></linearGradient><linearGradient id="screen--grad-outer-vert" x1="0%" y1="0%" x2="0%" y2="100%" gradientUnits="objectBoundingBox"><stop offset="0%" stop-color="#000000" stop-opacity=".9"></stop><stop offset="5%" stop-color="#000000" stop-opacity="0"></stop><stop offset="95%" stop-color="#000000" stop-opacity="0"></stop><stop offset="100%" stop-color="#000000" stop-opacity=".9"></stop></linearGradient><linearGradient id="screen--grad-inner-horiz" x1="0%" y1="0%" x2="100%" y2="0%" gradientUnits="objectBoundingBox"><stop offset="0%" stop-color="#000000" stop-opacity=".9"></stop><stop offset="10%" stop-color="#000000" stop-opacity=".1"></stop><stop offset="90%" stop-color="#000000" stop-opacity=".1"></stop><stop offset="100%" stop-color="#000000" stop-opacity=".9"></stop></linearGradient><linearGradient id="screen--grad-inner-vert" x1="0%" y1="0%" x2="0%" y2="100%" gradientUnits="objectBoundingBox"><stop offset="0%" stop-color="#000000" stop-opacity=".9"></stop><stop offset="10%" stop-color="#000000" stop-opacity=".1"></stop><stop offset="90%" stop-color="#000000" stop-opacity=".1"></stop><stop offset="100%" stop-color="#000000" stop-opacity=".9"></stop></linearGradient><radialGradient id="screen--grad-outer-corners" cx="50%" cy="50%" r="100%" gradientUnits="objectBoundingBox"><stop offset="0%" stop-color="#000000" stop-opacity="0"></stop><stop offset="60%" stop-color="#000000" stop-opacity=".2"></stop><stop offset="70%" stop-color="#000000" stop-opacity=".5"></stop></radialGradient><radialGradient id="screen--grad-overlay-contour" cx="50%" cy="50%" r="100%" gradientUnits="objectBoundingBox"><stop offset="0%" stop-color="#000000" stop-opacity="0"></stop><stop offset="25%" stop-color="#000000" stop-opacity=".2"></stop><stop offset="50%" stop-color="#000000" stop-opacity=".6"></stop><stop offset="70%" stop-color="#000000" stop-opacity=".9"></stop></radialGradient></defs><g clip-path="url(#screen--clip-outer)" mask="url(#screen--mask-inner)"><use xlink:href="#screen--rect-outer" filter="url(#screen--filter-texture)" fill="#6E7377" stroke="#000000" stroke-width=".5%"></use><g filter="url(#screen--filter-blur)" transform="scale(1.025) translate(-.5, -.375)"><use xlink:href="#screen--rect-outer" fill="url(#screen--grad-outer-corners)"></use><use xlink:href="#screen--rect-outer" fill="url(#screen--grad-outer-horiz)"></use><use xlink:href="#screen--rect-outer" fill="url(#screen--grad-outer-vert)"></use></g></g><g clip-path="url(#screen--clip-middle)" mask="url(#screen--mask-inner)" filter="url(#screen--filter-blur)"><path d="M 20 15 L 1 1 L 1 29 L 20 15 L 39 29 L 39 1 L 20 15 Z" fill="url(#screen--grad-inner-horiz)"></path><path d="M 20 15 L 1 1 L 39 1 L 20 15 L 39 29 L 1 29 L 20 15 Z" fill="url(#screen--grad-inner-vert)"></path><path d="M 1 1 L 39 29 Z M 1 29 L 39 1 Z" filter="url(#screen--filter-blur-corner)" stroke="#000000" opacity=".5" stroke-width="3%"></path></g><path d="M 3 2.5 Q 20 1.5, 37 2.5 Q 38 15, 37 27.5 Q 20 28.5, 3 27.5 Q 2 15, 3 2.5 Z" stroke="#101010" stroke-width=".3%" fill="none"></path><path d="M 3 2.5 Q 20 1.5, 37 2.5 Q 38 15, 37 27.5 Q 20 28.5, 3 27.5 Q 2 15, 3 2.5 Z" fill="url(#screen--grad-overlay-contour)"></path></svg>
