<svg version="1.1" baseProfile="full"  xmlns="http://www.w3.org/2000/svg" xmlns:xlink="http://www.w3.org/1999/xlink" viewBox="0 0 100 60" width="100" height="60"><line x1="7.25" y1="0" x2="7.25" y2="60" stroke="#FFFFFF" stroke-width="0.1" stroke-opacity=".3"></line><line x1="11.75" y1="0" x2="11.75" y2="60" stroke="#FFFFFF" stroke-width="0.15" stroke-opacity=".3"></line><line x1="16.25" y1="0" x2="16.25" y2="60" stroke="#FFFFFF" stroke-width="0.1" stroke-opacity=".3"></line><line x1="20.75" y1="0" x2="20.75" y2="60" stroke="#FFFFFF" stroke-width="0.15" stroke-opacity=".3"></line><line x1="25.25" y1="0" x2="25.25" y2="60" stroke="#FFFFFF" stroke-width="0.1" stroke-opacity=".3"></line><line x1="29.75" y1="0" x2="29.75" y2="60" stroke="#FFFFFF" stroke-width="0.15" stroke-opacity=".3"></line><line x1="34.25" y1="0" x2="34.25" y2="60" stroke="#FFFFFF" stroke-width="0.1" stroke-opacity=".3"></line><line x1="38.75" y1="0" x2="38.75" y2="60" stroke="#FFFFFF" stroke-width="0.15" stroke-opacity=".3"></line><line x1="43.25" y1="0" x2="43.25" y2="60" stroke="#FFFFFF" stroke-width="0.1" stroke-opacity=".3"></line><line x1="47.75" y1="0" x2="47.75" y2="60" stroke="#FFFFFF" stroke-width="0.15" stroke-opacity=".3"></line><line x1="52.25" y1="0" x2="52.25" y2="60" stroke="#FFFFFF" stroke-width="0.1" stroke-opacity=".3"></line><line x1="56.75" y1="0" x2="56.75" y2="60" stroke="#FFFFFF" stroke-width="0.15" stroke-opacity=".3"></line><line x1="61.25" y1="0" x2="61.25" y2="60" stroke="#FFFFFF" stroke-width="0.1" stroke-opacity=".3"></line><line x1="65.75" y1="0" x2="65.75" y2="60" stroke="#FFFFFF" stroke-width="0.15" stroke-opacity=".3"></line><line x1="70.25" y1="0" x2="70.25" y2="60" stroke="#FFFFFF" stroke-width="0.1" stroke-opacity=".3"></line><line x1="74.75" y1="0" x2="74.75" y2="60" stroke="#FFFFFF" stroke-width="0.15" stroke-opacity=".3"></line><line x1="79.25" y1="0" x2="79.25" y2="60" stroke="#FFFFFF" stroke-width="0.1" stroke-opacity=".3"></line><line x1="83.75" y1="0" x2="83.75" y2="60" stroke="#FFFFFF" stroke-width="0.15" stroke-opacity=".3"></line><line x1="88.25" y1="0" x2="88.25" y2="60" stroke="#FFFFFF" stroke-width="0.1" stroke-opacity=".3"></line><line x1="92.75" y1="0" x2="92.75" y2="60" stroke="#FFFFFF" stroke-width="0.15" stroke-opacity=".3"></line><line x1="0" y1="7.875" x2="100" y2="7.875" stroke="#FFFFFF" stroke-width="0.1" stroke-opacity=".3"></line><line x1="0" y1="12.375" x2="100" y2="12.375" stroke="#FFFFFF" stroke-width="0.15" stroke-opacity=".3"></line><line x1="0" y1="16.875" x2="100" y2="16.875" stroke="#FFFFFF" stroke-width="0.1" stroke-opacity=".3"></line><line x1="0" y1="21.375" x2="100" y2="21.375" stroke="#FFFFFF" stroke-width="0.15" stroke-opacity=".3"></line><line x1="0" y1="25.875" x2="100" y2="25.875" stroke="#FFFFFF" stroke-width="0.1" stroke-opacity=".3"></line><line x1="0" y1="30.375" x2="100" y2="30.375" stroke="#FFFFFF" stroke-width="0.15" stroke-opacity=".3"></line><line x1="0" y1="34.875" x2="100" y2="34.875" stroke="#FFFFFF" stroke-width="0.1" stroke-opacity=".3"></line><line x1="0" y1="39.375" x2="100" y2="39.375" stroke="#FFFFFF" stroke-width="0.15" stroke-opacity=".3"></line><line x1="0" y1="43.875" x2="100" y2="43.875" stroke="#FFFFFF" stroke-width="0.1" stroke-opacity=".3"></line><line x1="0" y1="48.375" x2="100" y2="48.375" stroke="#FFFFFF" stroke-width="0.15" stroke-opacity=".3"></line><line x1="0" y1="52.875" x2="100" y2="52.875" stroke="#FFFFFF" stroke-width="0.1" stroke-opacity=".3"></line></svg>
