<svg version="1.1" baseProfile="full"  xmlns="http://www.w3.org/2000/svg" xmlns:xlink="http://www.w3.org/1999/xlink" viewBox="0 0 100 60" width="100" height="60"><defs><mask id="metervu--mask-ticks"><rect x="0" y="0" width="100" height="60" fill="#000000"></rect><path d="M 12.5 24.35 Q 50 13.1, 87.5 24.35" fill="none" stroke="#FFFFFF" stroke-width="6.6"></path><path d=" M 50 57 L -13.7 0 L -13.7 57 M 50 57 L 113.7 0 L 113.7 57 " fill="none" stroke="#000000" stroke-width="6%"></path></mask><radialGradient id="metervu--grad-cutout" cx="50%" cy="50%" r="100%" gradientUnits="objectBoundingBox"><stop offset="0%" stop-color="#000000"></stop><stop offset="10%" stop-color="#202326"></stop><stop offset="40%" stop-color="#0F0D0A"></stop><stop offset="42%" stop-color="#131517"></stop><stop offset="45%" stop-color="#202326"></stop><stop offset="50%" stop-color="#000000"></stop></radialGradient></defs><rect x="5" y="5" width="90" height="50" rx="1" ry="1" fill="#BDA96D" stroke="#222222" stroke-width=".2%"></rect><g fill="#000000" opacity=".8" text-anchor="middle" alignment-baseline="middle" style="font-family: Helvetica, sans-serif; font-weight: 200;"><text x="50" y="36" textLength="11.11" lengthAdjust="spacingAndGlyphs" style="font-size: 7px; font-weight: 400;">VU</text><text x="50" y="42" style="font-size: 2.5px; font-style: italic;">@ 0 VU = -20 dBFS</text><text text-anchor="end" x="88" y="51" textLength="14.3" lengthAdjust="spacingAndGlyphs" style="font-family: Times, &quot;Times New Roman&quot;, serif; font-size: 3.5px; font-weight: 600;">KOZAK</text><text x="88" y="30" textLength="8.33" lengthAdjust="spacingAndGlyphs" style="font-size: 2.5px; font-weight: 400;">PEAK</text><text x="12" y="14.4" textLength="4" lengthAdjust="spacingAndGlyphs" style="font-size: 7px;">-</text><text x="88" y="14.4" fill="#C12822" style="font-size: 7px;">+</text><text x="17.278543" y="17.407848" fill="#000000" textLength="4.76" lengthAdjust="spacingAndGlyphs" style="font-size: 3.5px;">20</text><text x="28.594728" y="14.957763" fill="#000000" textLength="4.76" lengthAdjust="spacingAndGlyphs" style="font-size: 3.5px;">10</text><text x="37.61097" y="13.739022" fill="#000000" textLength="2.38" lengthAdjust="spacingAndGlyphs" style="font-size: 3.5px;">7</text><text x="45.864319" y="13.193451" fill="#000000" textLength="2.38" lengthAdjust="spacingAndGlyphs" style="font-size: 3.5px;">5</text><text x="54.135674" y="13.193451" fill="#000000" textLength="2.38" lengthAdjust="spacingAndGlyphs" style="font-size: 3.5px;">3</text><text x="66.49794" y="14.213801" fill="#C12822" textLength="2.38" lengthAdjust="spacingAndGlyphs" style="font-size: 3.5px;">0</text><text x="78.704674" y="16.420841" fill="#C12822" textLength="2.38" lengthAdjust="spacingAndGlyphs" style="font-size: 3.5px;">3</text></g><g mask="url(#metervu--mask-ticks)" fill="none"><path d="M 12.5 27.75 Q 50 16.5, 87.5 27.75" stroke="#000000" stroke-width=".8%" stroke-dasharray="0, 6.089, 44.525, 25.497"></path><path d="M 12.5 27.75 Q 50 16.5, 87.5 27.75" stroke="#C12822" stroke-width="5%" stroke-dasharray="0, 51.375, 19.408, 5.328"></path><line x1="50" y1="57" x2="1.793722" y2="0" stroke="#000000" stroke-width="1%"></line><line x1="50" y1="57" x2="21.074874" y2="0" stroke="#000000" stroke-width="1%"></line><line x1="50" y1="57" x2="34.397461" y2="0" stroke="#000000" stroke-width="1%"></line><line x1="50" y1="57" x2="39.31173" y2="0" stroke="#000000" stroke-width=".4%"></line><line x1="50" y1="57" x2="44.998847" y2="0" stroke="#000000" stroke-width="1%"></line><line x1="50" y1="57" x2="49.502554" y2="0" stroke="#000000" stroke-width=".4%"></line><line x1="50" y1="57" x2="55.001153" y2="0" stroke="#000000" stroke-width="1%"></line><line x1="50" y1="57" x2="60.158572" y2="0" stroke="#000000" stroke-width=".4%"></line><line x1="50" y1="57" x2="65.602539" y2="0" stroke="#000000" stroke-width=".4%"></line><line x1="50" y1="57" x2="71.417959" y2="0" stroke="#C12822" stroke-width="1%"></line><line x1="50" y1="57" x2="77.634862" y2="0" stroke="#C12822" stroke-width=".4%"></line><line x1="50" y1="57" x2="84.228095" y2="0" stroke="#C12822" stroke-width=".4%"></line><line x1="50" y1="57" x2="91.123323" y2="0" stroke="#C12822" stroke-width="1%"></line></g><rect x="45" y="52.2" rx="10" width="10" height="6" fill="url(#metervu--grad-cutout)" stroke="#000000" stroke-width=".3%"></rect></svg>
